<?xml version="1.0" standalone="no"?>
<!DOCTYPE svg PUBLIC "-//W3C//DTD SVG 20010904//EN"
 "http://www.w3.org/TR/2001/REC-SVG-20010904/DTD/svg10.dtd">
<svg version="1.0" xmlns="http://www.w3.org/2000/svg"
 width="580.000000pt" height="387.000000pt" viewBox="0 0 580.000000 387.000000"
 preserveAspectRatio="xMidYMid meet">

<g transform="translate(0.000000,387.000000) scale(0.100000,-0.100000)"
fill="#000000" stroke="none">
<path d="M3401 2590 c-59 -9 -101 -54 -101 -109 0 -33 6 -44 37 -70 21 -17 43
-31 49 -31 24 0 44 49 44 106 0 71 5 67 14 -8 6 -54 4 -60 -23 -90 -28 -31
-30 -32 -57 -18 -15 8 -40 28 -55 43 l-28 28 -22 -42 c-31 -62 -107 -132 -181
-168 -67 -32 -120 -42 -319 -60 -121 -12 -213 -43 -342 -116 -100 -57 -154
-75 -239 -82 -38 -3 -68 -9 -68 -14 0 -14 44 -39 68 -39 13 0 20 -4 17 -10 -9
-15 104 -12 158 4 57 17 103 50 128 90 23 37 24 22 4 -47 -8 -29 -21 -104 -29
-167 l-15 -115 -47 -43 -47 -43 -9 -97 c-4 -53 -8 -109 -9 -123 0 -24 -6 -27
-75 -43 -40 -10 -74 -20 -74 -22 0 -5 134 3 334 22 l159 15 183 -37 183 -37
173 27 c95 15 223 38 283 51 l110 23 -82 1 -81 1 -41 46 c-52 60 -59 104 -39
249 9 61 15 112 13 113 -2 2 -15 -19 -30 -47 -39 -77 -58 -166 -52 -236 5 -49
3 -56 -6 -40 -18 31 -11 143 12 210 12 33 46 99 76 146 76 119 115 242 125
387 9 128 21 154 78 178 82 35 87 39 105 90 14 39 16 56 7 78 -10 28 -12 29
-68 23 -47 -5 -64 -3 -90 13 -34 21 -56 22 -131 10z m-466 -793 c103 -49 155
-57 184 -28 11 11 21 30 21 40 0 11 4 22 9 25 5 3 9 -17 9 -44 1 -28 4 -55 8
-61 3 -6 7 -73 8 -148 2 -132 6 -154 43 -223 2 -3 -38 -9 -89 -13 -83 -6 -113
-3 -273 28 -140 28 -190 34 -223 28 -40 -8 -44 -7 -53 16 -24 64 4 152 62 194
21 15 45 52 75 117 24 52 44 96 44 99 0 2 -10 1 -22 -2 -19 -5 -20 -4 -8 5 29
21 122 6 205 -33z m-344 -135 c-6 -11 -29 -36 -52 -56 l-42 -35 6 -95 c6 -104
10 -97 -60 -111 -29 -6 -32 -4 -38 25 -16 74 15 142 92 201 29 22 63 53 75 69
24 33 36 34 19 2z m757 -293 c-2 -7 -14 5 -27 27 l-23 39 27 -26 c15 -15 25
-33 23 -40z"/>
</g>
</svg>
